<?xml version="1.0" encoding="utf-8"?>
<!-- Generator: Adobe Illustrator 21.0.1, SVG Export Plug-In . SVG Version: 6.00 Build 0)  -->
<svg version="1.1" id="Capa_1" xmlns="http://www.w3.org/2000/svg" xmlns:xlink="http://www.w3.org/1999/xlink" x="0px" y="0px"
	 viewBox="0 0 498 550" style="enable-background:new 0 0 498 550;" xml:space="preserve">
<style type="text/css">
	.st0{fill:#671F01;}
</style>
<path id="XMLID_304_" class="st0" d="M472.8,238l-64.1-28.7c-1.3-0.6-2.7-0.9-4.1-0.9h-44.4l-23.5-40.6c-1.8-3.1-5.1-5-8.7-5h-42
	v-12.9l24.8-30.1c3-3.7,3-9,0-12.7L261,46.6c-1.9-2.3-4.7-3.6-7.7-3.6c-3,0-5.8,1.3-7.7,3.6l-49.9,60.5c-3.1,3.7-3.1,9,0,12.7
	l24.8,30.1v12.9h-42c-3.6,0-6.9,1.9-8.7,5l-23.5,40.6h-44.4c-1.4,0-2.8,0.3-4.1,0.9L33.8,238c-3.6,1.6-5.9,5.2-5.9,9.1v25.4
	c0,5.5,4.5,10,10,10h65.7L95,297.4c-1.8,3.1-1.8,6.9,0,10l22,38.2l-12.2,7c-1.1,0.6-2,1.4-2.8,2.4l-50.9,62.8
	c-2.6,3.2-3,7.7-0.9,11.3l12.7,22c1.3,2.3,3.5,4,6.1,4.7c2.6,0.7,5.3,0.3,7.6-1l77.5-44.9l15.7,27.2c1.8,3.1,5.1,5,8.7,5h37.9l28,56
	c1.7,3.4,5.2,5.5,8.9,5.5c3.8,0,7.2-2.1,8.9-5.5l28-56h37.9c3.6,0,6.9-1.9,8.7-5l15.9-27.5l78.1,45.3c2.3,1.3,5,1.7,7.6,1
	c2.6-0.7,4.8-2.4,6.1-4.7l12.7-22c2.1-3.6,1.7-8.1-0.9-11.3l-50.9-62.8c-0.8-1-1.7-1.8-2.8-2.4l-12.8-7.4l21.8-37.8
	c1.8-3.1,1.8-6.9,0-10l-8.6-14.9h65.7c5.5,0,10-4.5,10-10v-25.4C478.7,243.1,476.4,239.6,472.8,238z M216.3,113.4l36.9-44.7
	l36.9,44.7l-21.9,26.5c-1.5,1.8-2.3,4-2.3,6.4v16.5h-25.6v-16.5c0-2.3-0.8-4.6-2.3-6.4L216.3,113.4z M47.8,262.5v-8.9l56.2-25.1
	h30.7l-19.7,34.1H47.8z M75.2,432.4L71,425l45.4-56l10.6-6.1l17.1,29.6L75.2,432.4z M253.3,471.2L238.7,442h29.2L253.3,471.2z
	 M390.9,369l45.4,56l-4.3,7.4l-69.5-40.2l17.1-29.6L390.9,369z M322.3,422H184.2l-69-119.6l69-119.6h138.1l69,119.6L322.3,422z
	 M458.7,262.5h-67.3l-19.7-34.1h30.7l56.2,25.1L458.7,262.5L458.7,262.5z M264.3,302.4c0,5.5-4.5,10-10,10h-2c-5.5,0-10-4.5-10-10
	s4.5-10,10-10h2C259.8,292.4,264.3,296.9,264.3,302.4z M277.2,250.9h-47.8c-3.6,0-6.9,1.9-8.7,5l-23.9,41.4c-1.8,3.1-1.8,6.9,0,10
	l23.9,41.4c1.8,3.1,5.1,5,8.7,5h47.8c3.6,0,6.9-1.9,8.7-5l23.9-41.4c1.8-3.1,1.8-6.9,0-10l-23.9-41.4
	C284.1,252.8,280.8,250.9,277.2,250.9z M271.4,333.8h-36.3L217,302.4l18.1-31.4h36.3l18.1,31.4L271.4,333.8z M311.7,211.1
	c-1.8-3.1-5.1-5-8.7-5h-99.6c-3.6,0-6.9,1.9-8.7,5L145,297.4c-1.8,3.1-1.8,6.9,0,10l49.8,86.3c1.8,3.1,5.1,5,8.7,5h99.6
	c3.6,0,6.9-1.9,8.7-5l49.8-86.3c1.8-3.1,1.8-6.9,0-10L311.7,211.1z M297.3,378.6h-88.1l-44-76.3l44-76.3h88.1l44,76.3L297.3,378.6z"
	/>
</svg>
