<?xml version="1.0" encoding="utf-8"?>
<!-- Generator: Adobe Illustrator 21.0.1, SVG Export Plug-In . SVG Version: 6.00 Build 0)  -->
<svg version="1.1" id="Capa_1" xmlns="http://www.w3.org/2000/svg" xmlns:xlink="http://www.w3.org/1999/xlink" x="0px" y="0px"
	 viewBox="0 0 458 460" style="enable-background:new 0 0 458 460;" xml:space="preserve">
<style type="text/css">
	.st0{fill:#671F01;}
</style>
<path id="XMLID_507_" class="st0" d="M347.1,231.8l71.6-71.6c2.9-2.9,3.7-7.2,2.2-10.9c-1.5-3.7-5.2-6.2-9.2-6.2h-84l61.6-61.6
	c2.9-2.9,3.7-7.2,2.2-10.9s-5.2-6.2-9.2-6.2H67.4c-4,0-7.7,2.4-9.2,6.2c-1.5,3.7-0.7,8,2.2,10.9l61.6,61.6H38c-4,0-7.7,2.4-9.2,6.2
	c-1.5,3.7-0.7,8,2.2,10.9l71.6,71.6l-71.6,71.6c-2.9,2.9-3.7,7.2-2.2,10.9c1.5,3.7,5.2,6.2,9.2,6.2h84l-61.6,61.6
	c-2.9,2.9-3.7,7.2-2.2,10.9c1.5,3.7,5.2,6.2,9.2,6.2h314.8c4,0,7.7-2.4,9.2-6.2s0.7-8-2.2-10.9l-61.6-61.6h84c4,0,7.7-2.4,9.2-6.2
	c1.5-3.7,0.7-8-2.2-10.9L347.1,231.8z M91.6,84.4h266.5l-58.7,58.7H150.3L91.6,84.4z M289.4,231.8l-64.6,64.6l-64.6-64.6l64.6-64.6
	L289.4,231.8z M62.1,300.5l61.6-61.6c1.9-1.9,2.9-4.4,2.9-7.1s-1.1-5.2-2.9-7.1l-61.6-61.6h138.5L139,224.7
	c-3.9,3.9-3.9,10.2,0,14.1l61.6,61.6H62.1z M358.1,379.2H91.6l58.7-58.7h149.1L358.1,379.2z M249,300.5l61.6-61.6
	c3.9-3.9,3.9-10.2,0-14.1L249,163.1h138.5l-61.6,61.6c-3.9,3.9-3.9,10.2,0,14.1l61.6,61.6H249z"/>
</svg>
