<?xml version="1.0" encoding="utf-8"?>
<!-- Generator: Adobe Illustrator 21.0.1, SVG Export Plug-In . SVG Version: 6.00 Build 0)  -->
<svg version="1.1" id="Capa_1" xmlns="http://www.w3.org/2000/svg" xmlns:xlink="http://www.w3.org/1999/xlink" x="0px" y="0px"
	 viewBox="0 0 480 493" style="enable-background:new 0 0 480 493;" xml:space="preserve">
<style type="text/css">
	.st0{fill:#671F01;}
</style>
<path id="XMLID_489_" class="st0" d="M23,138.4c0-5.5,4.5-10,10-10h67.9L66.8,94.3c-3.9-3.9-3.9-10.2,0-14.1
	c3.9-3.9,10.2-3.9,14.1,0l51.2,51.2c3.9,3.9,3.9,10.2,0,14.1l-51.2,51.2c-2,2-4.5,2.9-7.1,2.9c-2.6,0-5.1-1-7.1-2.9
	c-3.9-3.9-3.9-10.2,0-14.1l34.1-34.1H33C27.5,148.4,23,143.9,23,138.4z M128.3,94.3c-3.9-3.9-3.9-10.2,0-14.1
	c3.9-3.9,10.2-3.9,14.1,0l48.3,48.3h165.1V87.2c0-3.7,2-7.1,5.3-8.8c3.3-1.7,7.2-1.5,10.3,0.5l76.8,51.2c2.8,1.9,4.5,5,4.5,8.3
	c0,3.3-1.7,6.5-4.5,8.3l-76.8,51.2c-3.9,2.3-7.4,2.2-10.3,0.5c-3.2-1.9-5.3-5.1-5.3-8.8v-41.2H190.7l-48.3,48.3
	c-3.9,3.9-10.2,3.9-14.1,0c-3.9-3.9-3.9-10.2,0-14.1l44.1-44.1L128.3,94.3z M375.8,170.9l48.8-32.5l-48.8-32.5V170.9z M347.3,387.3
	c3.9,3.9,3.9,10.2,0,14.1c-2,2-4.5,2.9-7.1,2.9c-2.6,0-5.1-1-7.1-2.9l-48.3-48.3H119.8v41.2c0,3.7-2,7.1-5.3,8.8
	c-3.3,1.7-7.2,1.5-10.3-0.5l-76.8-51.2c-2.8-1.9-4.5-5-4.5-8.3c0-3.3,1.7-6.5,4.5-8.3l76.8-51.2c3.1-2,7-2.2,10.3-0.5
	c3.3,1.7,5.3,5.1,5.3,8.8v41.2h165.1l48.3-48.3c3.9-3.9,10.2-3.9,14.1,0c3.9,3.9,3.9,10.2,0,14.1l-44.1,44.1L347.3,387.3z
	 M99.8,310.7L51,343.2l48.8,32.5V310.7z M442.6,333.2h-67.9l34.1-34.1c3.9-3.9,3.9-10.2,0-14.1c-3.9-3.9-10.2-3.9-14.1,0l-51.2,51.2
	c-3.9,3.9-3.9,10.2,0,14.1l51.2,51.2c2,2,4.5,2.9,7.1,2.9c2.6,0,5.1-1,7.1-2.9c3.9-3.9,3.9-10.2,0-14.1l-34.1-34.1h67.9
	c5.5,0,10-4.5,10-10S448.1,333.2,442.6,333.2z"/>
</svg>
