<?xml version="1.0" encoding="utf-8"?>
<!-- Generator: Adobe Illustrator 21.0.1, SVG Export Plug-In . SVG Version: 6.00 Build 0)  -->
<svg version="1.1" id="Capa_1" xmlns="http://www.w3.org/2000/svg" xmlns:xlink="http://www.w3.org/1999/xlink" x="0px" y="0px"
	 viewBox="0 0 480 517" style="enable-background:new 0 0 480 517;" xml:space="preserve">
<style type="text/css">
	.st0{fill:#671F01;}
</style>
<path id="XMLID_71_" class="st0" d="M454.6,178.8H301v-70.9l28.6-48.9c1.8-3.1,1.8-6.9,0-10c-1.8-3.1-5.1-5-8.7-5H158.6
	c-3.6,0-6.9,1.9-8.7,5c-1.8,3.1-1.8,6.9,0,10l28.6,48.9v70.9H25c-5.5,0-10,4.5-10,10v71.5c0,3.9,2.3,7.5,5.9,9.1l112.4,50.9
	c1.3,0.6,2.7,0.9,4.1,0.9h41.2v132.4h-68.2c-5.5,0-10,4.5-10,10s4.5,10,10,10h258.8c5.5,0,10-4.5,10-10s-4.5-10-10-10H301V321.2
	h41.2c1.4,0,2.8-0.3,4.1-0.9l112.4-50.9c3.6-1.6,5.9-5.2,5.9-9.1v-71.5C464.6,183.2,460.1,178.8,454.6,178.8z M178.6,301.2h-19.8
	v-60c0-5.5-4.5-10-10-10s-10,4.5-10,10v59.7l-22-10v-49.7c0-5.5-4.5-10-10-10s-10,4.5-10,10v40.7l-22-10v-30.7c0-5.5-4.5-10-10-10
	s-10,4.5-10,10v21.6l-19.8-9v-55h143.6V301.2z M281,453.6h-82.4V419H281V453.6z M281,399h-82.4v-27.8H281V399z M281,146.4h-23.5
	c-5.5,0-10,4.5-10,10s4.5,10,10,10H281v184.8h-82.4V166.4h23.5c5.5,0,10-4.5,10-10s-4.5-10-10-10h-23.5v-31.2H281V146.4z
	 M285.3,95.2h-90.9L176.1,64h127.5L285.3,95.2z M444.6,253.8l-19.8,9v-21.6c0-5.5-4.5-10-10-10s-10,4.5-10,10v30.7l-22,10v-40.7
	c0-5.5-4.5-10-10-10s-10,4.5-10,10v49.7l-22,10v-59.7c0-5.5-4.5-10-10-10s-10,4.5-10,10v60H301V198.8h143.6V253.8z M229.8,188.8
	c0-5.5,4.5-10,10-10s10,4.5,10,10v33.5c0,5.5-4.5,10-10,10s-10-4.5-10-10V188.8z"/>
</svg>
