<?xml version="1.0" encoding="iso-8859-1"?>
<!-- Generator: Adobe Illustrator 19.0.0, SVG Export Plug-In . SVG Version: 6.00 Build 0)  -->
<svg version="1.1" id="Capa_1" xmlns="http://www.w3.org/2000/svg" xmlns:xlink="http://www.w3.org/1999/xlink" x="0px" y="0px"
	 viewBox="0 0 446.665 446.665" style="enable-background:new 0 0 446.665 446.665;" xml:space="preserve">
<path fill="#671f01" id="XMLID_541_" d="M234.372,223.333c0,5.523-4.478,10-10,10h-2.076c-5.523,0-10-4.477-10-10s4.477-10,10-10h2.076
	C229.894,213.333,234.372,217.81,234.372,223.333z M446.665,244.673c0,5.523-4.478,10-10,10H335.409
	c-2.221,7.932-5.264,15.525-9.029,22.68h51.577c5.522,0,10,4.477,10,10s-4.478,10-10,10h-64.904
	c-4.724,5.715-9.982,10.975-15.698,15.698v64.905c0,5.523-4.478,10-10,10s-10-4.477-10-10v-51.579
	c-7.154,3.766-14.748,6.808-22.68,9.029v101.258c0,5.523-4.478,10-10,10s-10-4.477-10-10v-97.52c-7.465,0.726-15.217,0.726-22.682,0
	v97.52c0,5.523-4.477,10-10,10s-10-4.477-10-10V335.406c-7.932-2.221-15.526-5.264-22.681-9.03v51.581c0,5.523-4.477,10-10,10
	s-10-4.477-10-10v-64.907c-5.713-4.722-10.974-9.983-15.696-15.696H68.709c-5.523,0-10-4.477-10-10s4.477-10,10-10h51.58
	c-3.766-7.154-6.809-14.748-9.03-22.68H10c-5.523,0-10-4.477-10-10s4.477-10,10-10h97.521c-0.363-3.732-0.548-7.514-0.548-11.34
	s0.186-7.61,0.548-11.342H10c-5.523,0-10-4.477-10-10s4.477-10,10-10H111.26c2.221-7.932,5.264-15.526,9.03-22.68H68.709
	c-5.523,0-10-4.477-10-10s4.477-10,10-10h64.908c4.722-5.713,9.982-10.973,15.695-15.695V68.709c0-5.523,4.477-10,10-10
	s10,4.477,10,10v51.58c7.154-3.766,14.749-6.809,22.681-9.03V10c0-5.523,4.477-10,10-10s10,4.477,10,10v97.52
	c7.465-0.726,15.217-0.726,22.682,0V10c0-5.523,4.478-10,10-10s10,4.477,10,10v101.258c7.932,2.221,15.525,5.264,22.68,9.03V68.709
	c0-5.523,4.478-10,10-10s10,4.477,10,10v64.905c5.716,4.724,10.973,9.981,15.697,15.697h64.905c5.522,0,10,4.477,10,10
	s-4.478,10-10,10h-51.578c3.766,7.154,6.81,14.749,9.03,22.68h101.256c5.522,0,10,4.477,10,10s-4.478,10-10,10h-97.517
	c0.362,3.732,0.548,7.516,0.548,11.342s-0.186,7.608-0.548,11.34h97.517C442.187,234.673,446.665,239.15,446.665,244.673z
	 M319.696,223.333c0-53.134-43.228-96.362-96.362-96.362c-53.133,0-96.361,43.228-96.361,96.362c0,53.133,43.228,96.36,96.361,96.36
	C276.468,319.693,319.696,276.466,319.696,223.333z"/>
<g>
</g>
<g>
</g>
<g>
</g>
<g>
</g>
<g>
</g>
<g>
</g>
<g>
</g>
<g>
</g>
<g>
</g>
<g>
</g>
<g>
</g>
<g>
</g>
<g>
</g>
<g>
</g>
<g>
</g>
</svg>
