<?xml version="1.0" encoding="utf-8"?>
<!-- Generator: Adobe Illustrator 21.0.1, SVG Export Plug-In . SVG Version: 6.00 Build 0)  -->
<svg version="1.1" id="Capa_1" xmlns="http://www.w3.org/2000/svg" xmlns:xlink="http://www.w3.org/1999/xlink" x="0px" y="0px"
	 viewBox="0 0 451 522" style="enable-background:new 0 0 451 522;" xml:space="preserve">
<style type="text/css">
	.st0{fill:#671F01;}
</style>
<path id="XMLID_390_" class="st0" d="M331.7,256.6c-1.8-2.9-5-4.6-8.4-4.6h-49.1l7-16.9c1-2.5,1-5.2,0-7.7l-3.8-9.1h45.8
	c3.4,0,6.6-1.7,8.4-4.6l48.5-76.2c3-4.7,1.6-10.8-3.1-13.8c-4.7-3-10.8-1.6-13.8,3.1l-14.7,23.1l-14.7-23.1c-3-4.7-9.1-6-13.8-3.1
	c-4.7,3-6,9.1-3.1,13.8l19.8,31l-19,29.8h-48.6l-16.5-39.7h36.9c3.6,0,7-2,8.8-5.2c1.8-3.2,1.6-7.1-0.3-10.2L234.1,41.7
	c-1.8-2.9-5-4.7-8.5-4.7c-3.4,0-6.6,1.8-8.5,4.7l-63.9,101.5c-1.9,3.1-2.1,7-0.3,10.2c1.8,3.2,5.1,5.2,8.8,5.2h36.9l-16.5,39.7
	h-48.9l-19-29.8l19.8-31c3-4.7,1.6-10.8-3.1-13.8c-4.7-3-10.8-1.6-13.8,3.1l-14.7,23.1l-14.7-23.1c-3-4.7-9.2-6-13.8-3.1
	c-4.7,3-6,9.1-3.1,13.8l48.5,76.2c1.8,2.9,5,4.6,8.4,4.6h46.1l-3.8,9.1c-1,2.5-1,5.2,0,7.7l7,16.9h-49.4c-3.4,0-6.6,1.7-8.4,4.6
	l-48.5,76.2c-3,4.7-1.6,10.8,3.1,13.8c4.7,3,10.8,1.6,13.8-3.1l14.7-23.1l14.7,23.1c3,4.7,9.1,6,13.8,3.1c4.7-3,6-9.1,3.1-13.8
	l-19.8-31l19-29.8h52.2l29.4,70.8l-33.1,75.4c-1.2,2.7-1.1,5.7,0.2,8.4l27.1,55.9c1.7,3.4,5.2,5.6,9,5.6h21.7c3.8,0,7.3-2.2,9-5.6
	l27.1-55.9c1.3-2.8,1.3-6,0-8.7L258.8,383c-1.7-3.4-5.2-5.6-9-5.6c-3.8,0-7.3,2.2-9,5.6l-18.4,37.9c-2.4,5-0.3,11,4.6,13.4
	c5,2.4,11,0.3,13.4-4.6l9.4-19.4l5.7,11.8L233.3,468h-9.1l-22.3-46.1l33-75c0-0.1,0.1-0.2,0.1-0.2l31-74.7h51.9l19,29.8l-19.8,31
	c-3,4.7-1.6,10.8,3.1,13.8c4.7,3,10.8,1.6,13.8-3.1l14.7-23.1l14.7,23.1c3,4.7,9.1,6,13.8,3.1c4.7-3,6-9.1,3.1-13.8L331.7,256.6z
	 M179.9,138.5l45.8-72.7l45.8,72.7H179.9z M225.6,316.8l-35.6-85.6l30.2-72.7H231l30.2,72.7L225.6,316.8z"/>
</svg>
