<?xml version="1.0" encoding="utf-8"?>
<!-- Generator: Adobe Illustrator 21.0.1, SVG Export Plug-In . SVG Version: 6.00 Build 0)  -->
<svg version="1.1" id="Capa_1" xmlns="http://www.w3.org/2000/svg" xmlns:xlink="http://www.w3.org/1999/xlink" x="0px" y="0px"
	 viewBox="0 0 468 512" style="enable-background:new 0 0 468 512;" xml:space="preserve">
<style type="text/css">
	.st0{fill:#671F01;}
</style>
<path id="XMLID_827_" class="st0" d="M242.9,77.6c0,5.5-4.5,10-10,10h-2c-5.5,0-10-4.5-10-10c0-5.5,4.5-10,10-10h2
	C238.4,67.6,242.9,72.1,242.9,77.6z M446.3,260.6l-30.3,33.7c-3.7,4.1-10,4.4-14.1,0.7c-4.1-3.7-4.4-10-0.7-14.1l24-26.7l-16.7-16.9
	l-56.2,62.4c-3.7,4.1-10,4.4-14.1,0.7c-4.1-3.7-4.4-10-0.7-14.1l57-63.2l-15.8-16l-79.2,88c-3.7,4.1-10,4.4-14.1,0.7
	c-4.1-3.7-4.4-10-0.7-14.1l80-88.9l-16.8-17L245.3,289.5l71.7,79.6c3.7,4.1,3.4,10.4-0.7,14.1c-4.1,3.7-10.4,3.4-14.1-0.7
	l-15.8-17.6v61c0,5.5-4.5,10-10,10s-10-4.5-10-10v-83.3l-24.5-27.1v148.2c0,5.5-4.5,10-10,10s-10-4.5-10-10V315.5l-24.5,27.1V426
	c0,5.5-4.5,10-10,10s-10-4.5-10-10v-61.1l-15.8,17.6c-3.7,4.1-10,4.4-14.1,0.7c-4.1-3.7-4.4-10-0.7-14.1l71.7-79.6L115.9,175.8
	l-16.8,17l80,88.9c3.7,4.1,3.4,10.4-0.7,14.1c-4.1,3.7-10.4,3.4-14.1-0.7l-79.2-88l-15.8,16l57,63.2c3.7,4.1,3.4,10.4-0.7,14.1
	c-4.1,3.7-10.4,3.4-14.1-0.7l-56.2-62.4l-16.7,16.9l24,26.7c3.7,4.1,3.4,10.4-0.7,14.1s-10.4,3.4-14.1-0.7l-30.3-33.7
	c-3.5-3.9-3.4-9.9,0.3-13.7l103.5-104.9c1.9-1.9,4.4-3,7.1-3h43.2L192.8,54h-22.4c-5.5,0-10-4.5-10-10s4.5-10,10-10l87.7,0
	c4.6,0,8.6,3.1,9.7,7.6l24.3,97.4h43.2c2.7,0,5.2,1.1,7.1,3L446,246.8C449.7,250.6,449.8,256.6,446.3,260.6z M192.2,138.9h79.3
	L250.3,54h-36.8L192.2,138.9z M333.7,161.5l-2.5-2.6H132.5l-2.5,2.6l101.8,113.1L333.7,161.5z M274.8,177.3
	c-4.1-3.7-10.4-3.4-14.1,0.7l-28.8,32L203,178c-3.7-4.1-10-4.4-14.1-0.7c-4.1,3.7-4.4,10-0.7,14.1l36.3,40.3
	c1.9,2.1,4.6,3.3,7.4,3.3s5.5-1.2,7.4-3.3l36.3-40.3C279.3,187.3,278.9,181,274.8,177.3z"/>
</svg>
