<?xml version="1.0" encoding="utf-8"?>
<!-- Generator: Adobe Illustrator 21.0.1, SVG Export Plug-In . SVG Version: 6.00 Build 0)  -->
<svg version="1.1" id="Forma_1_1_" xmlns="http://www.w3.org/2000/svg" xmlns:xlink="http://www.w3.org/1999/xlink" x="0px" y="0px"
	 viewBox="0 0 494 699" style="enable-background:new 0 0 494 699;" xml:space="preserve">
<style type="text/css">
	.st0{fill-rule:evenodd;clip-rule:evenodd;fill:#671F01;}
</style>
<g id="Forma_1">
	<g>
		<path class="st0" d="M462.8,206.2l-27.4-21.7c-3.8-3-8.9-3.8-13.4-2l-36.4,14.3v-57.6c0-4.2-1.9-8.1-5.2-10.7L353,106.7
			c-3.8-3-8.9-3.8-13.4-2l-36.6,14.4v-47c0-4.2-1.9-8.1-5.2-10.7l-27.4-21.7c-3.8-3-8.9-3.8-13.4-2l-55.2,21.7
			c-5.2,2-8.6,7.1-8.6,12.7v47l-36.7-14.4c-4.5-1.8-9.6-1-13.4,2l-27.4,21.7c-3.3,2.6-5.2,6.5-5.2,10.7v57.6L74,182.4
			c-4.5-1.8-9.6-1-13.4,2l-27.4,21.7c-3.3,2.6-5.2,6.5-5.2,10.7v247.6c0,0.1,0,0.3,0,0.4c0.2,44.3,16,85.9,45.4,118.9
			c37,41.5,93.1,65.3,153.7,65.3c49.9,0,98.6-15.3,140.7-44.2c41-28.1,72.4-67.7,88.6-111.4c11-29.8,11.6-48.5,11.6-76.5v-200
			C468,212.7,466.1,208.7,462.8,206.2z M430.9,483.9c-30,81.1-113.8,137.8-203.8,137.8c-53.7,0-101-20-133.4-56.2
			c-29.2-32.7-42.5-75.4-37.5-120.3c8.1-72.6,78.5-131.7,156.9-131.7c39.3,0,73.9,14.6,97.5,41c21.2,23.8,30.9,54.9,27.3,87.6
			c-5.2,46.2-50.1,83.7-100.1,83.7c-24.9,0-46.7-9.2-61.6-25.8c-13.3-14.9-19.3-34.4-17.1-54.9c2.2-19.4,22-35.8,43.3-35.8
			c10.5,0,19.6,3.8,25.7,10.6c5.3,6,7.8,13.8,6.8,22.1c-0.8,7.5,4.5,14.2,12,15.1c7.5,0.8,14.2-4.5,15-12c1.8-16.1-3-31.5-13.6-43.3
			c-11.2-12.5-28-19.7-46-19.7c-16.9,0-33.5,6.1-46.7,17.2c-13.4,11.3-21.8,26.5-23.6,42.8c-3.2,28.3,5.3,55.3,23.8,76.1
			c19.8,22.2,49.7,34.9,81.9,34.9c30.7,0,60.8-11.1,84.7-31.3c24.1-20.4,39.2-47.6,42.5-76.7c4.5-40.5-7.6-79.2-34-108.8
			c-28.4-31.8-71.4-50.1-117.8-50.1c-44.4,0-88,16.1-122.6,45.3c-14,11.8-25.8,25.2-35.4,39.6V223.4l16.1-12.8l39,15.4v40.6
			c0,7.5,6.1,13.6,13.6,13.6c7.5,0,13.6-6.1,13.6-13.6V145.7l16.1-12.8l39.4,15.5v94.7c0,7.5,6.1,13.6,13.6,13.6
			c7.5,0,13.6-6.1,13.6-13.6V81.5L259.6,66l16.1,12.8v171.5c0,7.5,6.1,13.6,13.6,13.6c7.5,0,13.6-6.1,13.6-13.6V148.4l39.3-15.5
			l16.1,12.8v164.5c0,7.5,6.1,13.6,13.6,13.6s13.6-6.1,13.6-13.6V226l39.1-15.4l16.1,12.8v193.4h0
			C440.8,443.4,440.4,458.4,430.9,483.9z"/>
	</g>
</g>
</svg>
